<svg width="800" height="500"
	xmlns="http://www.w3.org/2000/svg"
	xmlns:xlink="http://www.w3.org/1999/xlink">
	<title>Responsive View AO Hub</title>
	<g>
		<title>background</title>
		<rect x="0" y="0" width="800" height="500" fill="none"/>
	</g>
	<g>
		<title>Layer 1</title>
		<path d="m683.79279,18.65217l-260.1696,0l0,-5.36232l-117.971,0l0,5.36232l-261.24208,0a17.5985,17.5985 0 0 0 -17.59852,17.59851l0,356.25219a17.59856,17.59856 0 0 0 17.59852,17.59858l639.38268,0a17.59856,17.59856 0 0 0 17.59852,-17.59858l0,-356.25219a17.5985,17.5985 0 0 0 -17.59852,-17.59851z" fill="#BBBBBB" id="svg_4"/>
		<circle cx="363.56522" cy="33.66667" r="6.43478" fill="#000"/>
		<image x="46" y="41.27162" width="632.00001" height="360" xlink:href="AO-Hub.png" />

        <!-- Laptop screen reflection -->
		<polygon points="671.3739903677183,397.6669921875 47.4059944152832,397.6669921875 47.4059944152832,40.7540168762207 671.3739903677183,397.6669921875 " opacity="0.1"/>

		<!-- Keyboard -->
		<path d="m712.00709,396.23186l-61.22931,0l0,-4.41153a0.87468,0.87468 0 0 0 -0.87471,-0.87471l-20.9929,0a0.87468,0.87468 0 0 0 -0.87471,0.87471l0,4.41153l-13.12057,0l0,-4.41153a0.87467,0.87467 0 0 0 -0.8747,-0.87471l-20.99291,0a0.87468,0.87468 0 0 0 -0.8747,0.87471l0,4.41153l-13.12057,0l0,-4.41153a0.87468,0.87468 0 0 0 -0.8747,-0.87471l-20.99287,0a0.87468,0.87468 0 0 0 -0.87471,0.87471l0,4.41153l-13.1206,0l0,-4.41153a0.87468,0.87468 0 0 0 -0.87471,-0.87471l-20.99291,0a0.87468,0.87468 0 0 0 -0.8747,0.87471l0,4.41153l-13.12057,0l0,-4.41153a0.87468,0.87468 0 0 0 -0.8747,-0.87471l-20.99291,0a0.87467,0.87467 0 0 0 -0.8747,0.87471l0,4.41153l-13.12057,0l0,-4.41153a0.87468,0.87468 0 0 0 -0.87471,-0.87471l-20.9929,0a0.87468,0.87468 0 0 0 -0.87471,0.87471l0,4.41153l-13.1206,0l0,-4.41153a0.87468,0.87468 0 0 0 -0.8747,-0.87471l-164.44442,0a0.87468,0.87468 0 0 0 -0.8747,0.87471l0,4.41153l-13.12057,0l0,-4.41153a0.87468,0.87468 0 0 0 -0.8747,-0.87471l-20.99291,0a0.87467,0.87467 0 0 0 -0.8747,0.87471l0,4.41153l-13.12057,0l0,-4.41153a0.87468,0.87468 0 0 0 -0.87471,-0.87471l-20.9929,0a0.87468,0.87468 0 0 0 -0.87471,0.87471l0,4.41153l-13.12057,0l0,-4.41153a0.87467,0.87467 0 0 0 -0.8747,-0.87471l-20.99291,0a0.87468,0.87468 0 0 0 -0.8747,0.87471l0,4.41153l-13.12053,0l0,-4.41153a0.87468,0.87468 0 0 0 -0.8747,-0.87471l-20.99295,0a0.87468,0.87468 0 0 0 -0.87471,0.87471l0,4.41153l-13.12056,0l0,-4.41153a0.87468,0.87468 0 0 0 -0.87471,-0.87471l-20.99291,0a0.87468,0.87468 0 0 0 -0.8747,0.87471l0,4.41153l-13.12057,0l0,-4.41153a0.87468,0.87468 0 0 0 -0.8747,-0.87471l-20.99291,0a0.87467,0.87467 0 0 0 -0.8747,0.87471l0,4.41153l-40.23641,0a20.99293,20.99293 0 0 0 -20.99291,20.99291l0,9.4925a20.99291,20.99291 0 0 0 20.99291,20.99285l698.01418,0a20.9929,20.9929 0 0 0 20.99291,-20.99285l0,-9.4925a20.99292,20.99292 0 0 0 -20.99291,-20.99291z" fill="#666666" id="svg_17" stroke="null"/>

        <!-- Phone Frame -->
		<path d="m780.17136,234.48157l-1.90479,0l0,-49.65801a30.20103,28.74069 0 0 0 -30.20112,-28.74071l-110.55274,0a30.20103,28.74068 0 0 0 -30.20114,28.74071l0,272.42752a30.20103,28.74069 0 0 0 30.20114,28.74072l110.55275,0a30.20103,28.74069 0 0 0 30.20112,-28.74072l0,-187.42213l1.90479,0l-0.00002,-35.34738l0.00001,0z" fill="#000000"/>

        <!-- Phone Screen -->
		<path d="m767.76144,184.85891l0,266.27114a21.52249,21.0096 0 0 1 -21.51861,21.01316l-106.0029,0a21.5224,21.00951 0 0 1 -21.51849,-21.01316l0,-266.27114a21.52078,21.00794 0 0 1 21.51849,-21.0057l12.86066,0a10.22373,9.9801 0 0 0 9.46783,13.74769l60.4367,0a10.22364,9.98001 0 0 0 9.46779,-13.74769l13.77,0a21.52084,21.008 0 0 1 21.51853,21.0057z" fill="#531605" id="svg_29" stroke-width="0"/>
		<image x="620.5855" y="175.27155" width="145.99995" height="277.00006" id="svg_48" xlink:href="AO-Hub-Mobile.png"/>

        <!-- Phone screen reflector  -->
		<path d="m766.76144,429.90116l0,27.74156a21.8113,20.49705 0 0 1 -21.80737,20.50052l-107.42538,0a21.81121,20.49696 0 0 1 -21.80725,-20.50052l0,-139.87948l90.50474,67.19251l1.54881,1.14984l16.83557,12.49534l1.57205,1.17167l40.57883,30.12856z" opacity="0.1"/>
	</g>
</svg>